<svg fill="none" height="49" viewBox="0 0 31 49" width="31" xmlns="http://www.w3.org/2000/svg"><path d="m22.1401 1.616-16.97583-.06942v7.01175c0 4.23487-3.709 5.55387-3.709 12.91277v7.22c0 1.5967 1.35521 2.8463 2.9244 2.8463 1.5692 0 2.92441-1.319 2.92441-2.8463v2.3604c0 1.5967 1.35521 2.8463 2.92442 2.8463 1.5692 0 2.9244-1.319 2.9244-2.8463v1.1107c0 1.5968 1.3552 2.8464 2.9244 2.8464 1.6405 0 2.9244-1.319 2.9244-2.8464v-2.1521c0 .2083 0 15.0649.0713 15.2731.2853 1.3191 1.4979 2.291 2.9244 2.291 1.6406 0 2.9244-1.319 2.9244-2.8463l.0001-24.2982.0713 6.8729c6.4194-2.0827 4.9929-5.8315 3.8516-9.6498-1.3552-4.9985-8.2026-8.60851-6.7047-16.0368z" fill="#ffcf82"/><g stroke="#211d3d" stroke-linecap="round" stroke-linejoin="round" stroke-miterlimit="10" stroke-width="2"><path d="m13.293 24.87v6.3175"/><path d="m19.1406 25.0793v6.8035"/><path d="m7.375 24.8747v4.8597"/><path d="m22.138 1.33921v3.33232c.3566 6.10927 5.3496 7.98367 6.8475 12.98217 1.1412 3.7488 2.5677 7.5671-3.8517 9.6498l-.0714-6.8729v24.3676c0 1.5967-1.3552 2.8463-2.9244 2.8463-1.4979 0-2.7818-1.1107-2.9244-2.5686 0-.0695 0-14.9955 0-15.0649v2.1521c0 1.5968-1.3553 2.8464-2.9245 2.8464-1.6405 0-2.9244-1.319-2.9244-2.8464v-1.1107c0 1.5967-1.3552 2.8463-2.9244 2.8463-1.56923 0-2.92445-1.319-2.92445-2.8463v-2.3604c0 1.5967-1.35522 2.8463-2.92443 2.8463-1.5692 0-2.92443-1.319-2.92443-2.8463v-7.1506c0-7.4283 3.70904-8.6779 3.70904-12.91275v-3.95713-3.33231"/></g></svg>